ply
format ascii 1.0
element vertex 840
property float x
property float y
property float z
element face 1520
property list uchar int vertex_indices
end_header
0.0 0.0 1.0
0.0 0.0 1.0
0.0 0.0 1.0
0.0 0.0 1.0
0.0 0.0 1.0
0.0 0.0 1.0
0.0 0.0 1.0
0.0 0.0 1.0
0.0 0.0 1.0
0.0 0.0 1.0
0.0 0.0 1.0
-0.0 0.0 1.0
-0.0 0.0 1.0
-0.0 0.0 1.0
-0.0 0.0 1.0
-0.0 0.0 1.0
-0.0 0.0 1.0
-0.0 0.0 1.0
-0.0 0.0 1.0
-0.0 0.0 1.0
-0.0 0.0 1.0
-0.0 -0.0 1.0
-0.0 -0.0 1.0
-0.0 -0.0 1.0
-0.0 -0.0 1.0
-0.0 -0.0 1.0
-0.0 -0.0 1.0
-0.0 -0.0 1.0
-0.0 -0.0 1.0
-0.0 -0.0 1.0
-0.0 -0.0 1.0
0.0 -0.0 1.0
0.0 -0.0 1.0
0.0 -0.0 1.0
0.0 -0.0 1.0
0.0 -0.0 1.0
0.0 -0.0 1.0
0.0 -0.0 1.0
0.0 -0.0 1.0
0.0 -0.0 1.0
0.15643446504023087 0.0 0.9876883405951378
0.15450849718747373 0.024471741852423214 0.9876883405951378
0.14877801734965795 0.04834090820338493 0.9876883405951378
0.13938412895876287 0.07101976096010308 0.9876883405951378
0.12655814072350038 0.09194987150091018 0.9876883405951378
0.11061587104123716 0.11061587104123714 0.9876883405951378
0.09194987150091018 0.12655814072350038 0.9876883405951378
0.07101976096010308 0.13938412895876287 0.9876883405951378
0.048340908203384936 0.14877801734965795 0.9876883405951378
0.024471741852423224 0.15450849718747373 0.9876883405951378
9.578848344392363e-18 0.15643446504023087 0.9876883405951378
-0.024471741852423172 0.15450849718747373 0.9876883405951378
-0.04834090820338492 0.14877801734965798 0.9876883405951378
-0.07101976096010307 0.13938412895876287 0.9876883405951378
-0.09194987150091015 0.12655814072350038 0.9876883405951378
-0.11061587104123714 0.11061587104123716 0.9876883405951378
-0.12655814072350036 0.09194987150091019 0.9876883405951378
-0.13938412895876284 0.07101976096010308 0.9876883405951378
-0.14877801734965795 0.04834090820338494 0.9876883405951378
-0.1545084971874737 0.02447174185242323 0.9876883405951378
-0.15643446504023087 1.9157696688784726e-17 0.9876883405951378
-0.15450849718747373 -0.024471741852423193 0.9876883405951378
-0.14877801734965798 -0.04834090820338485 0.9876883405951378
-0.13938412895876287 -0.07101976096010305 0.9876883405951378
-0.12655814072350038 -0.09194987150091015 0.9876883405951378
-0.11061587104123717 -0.11061587104123714 0.9876883405951378
-0.09194987150091019 -0.12655814072350036 0.9876883405951378
-0.0710197609601031 -0.13938412895876284 0.9876883405951378
-0.04834090820338496 -0.14877801734965795 0.9876883405951378
-0.02447174185242324 -0.1545084971874737 0.9876883405951378
-2.8736545033177085e-17 -0.15643446504023087 0.9876883405951378
0.024471741852423182 -0.15450849718747373 0.9876883405951378
0.0483409082033849 -0.14877801734965798 0.9876883405951378
0.07101976096010305 -0.13938412895876287 0.9876883405951378
0.09194987150091014 -0.12655814072350038 0.9876883405951378
0.11061587104123712 -0.11061587104123717 0.9876883405951378
0.12655814072350036 -0.0919498715009102 0.9876883405951378
0.13938412895876284 -0.0710197609601031 0.9876883405951378
0.14877801734965795 -0.04834090820338497 0.9876883405951378
0.1545084971874737 -0.024471741852423252 0.9876883405951378
0.3090169943749474 0.0 0.9510565162951535
0.3052124823898888 0.04834090820338493 0.9510565162951535
0.2938926261462365 0.09549150281252627 0.9510565162951535
0.2753361580731583 0.1402907797042951 0.9510565162951535
0.24999999999999997 0.1816356320013402 0.9510565162951535
0.21850801222441052 0.2185080122244105 0.9510565162951535
0.1816356320013402 0.24999999999999997 0.9510565162951535
0.1402907797042951 0.2753361580731583 0.9510565162951535
0.09549150281252629 0.2938926261462365 0.9510565162951535
0.04834090820338494 0.3052124823898888 0.9510565162951535
1.892183365217075e-17 0.3090169943749474 0.9510565162951535
-0.04834090820338484 0.3052124823898888 0.9510565162951535
-0.09549150281252625 0.29389262614623657 0.9510565162951535
-0.14029077970429507 0.2753361580731583 0.9510565162951535
-0.18163563200134017 0.24999999999999997 0.9510565162951535
-0.2185080122244105 0.21850801222441052 0.9510565162951535
-0.24999999999999994 0.18163563200134025 0.9510565162951535
-0.27533615807315825 0.1402907797042951 0.9510565162951535
-0.2938926261462365 0.0954915028125263 0.9510565162951535
-0.3052124823898888 0.048340908203384964 0.9510565162951535
-0.3090169943749474 3.78436673043415e-17 0.9510565162951535
-0.3052124823898888 -0.04834090820338489 0.9510565162951535
-0.29389262614623657 -0.09549150281252612 0.9510565162951535
-0.2753361580731583 -0.14029077970429507 0.9510565162951535
-0.24999999999999997 -0.18163563200134017 0.9510565162951535
-0.21850801222441057 -0.2185080122244105 0.9510565162951535
-0.18163563200134025 -0.24999999999999994 0.9510565162951535
-0.14029077970429515 -0.27533615807315825 0.9510565162951535
-0.09549150281252632 -0.2938926261462365 0.9510565162951535
-0.04834090820338498 -0.3052124823898888 0.9510565162951535
-5.676550095651224e-17 -0.3090169943749474 0.9510565162951535
0.048340908203384866 -0.3052124823898888 0.9510565162951535
0.09549150281252622 -0.29389262614623657 0.9510565162951535
0.14029077970429504 -0.2753361580731583 0.9510565162951535
0.18163563200134014 -0.25 0.9510565162951535
0.21850801222441046 -0.21850801222441057 0.9510565162951535
0.24999999999999994 -0.18163563200134028 0.9510565162951535
0.27533615807315825 -0.14029077970429515 0.9510565162951535
0.2938926261462365 -0.09549150281252636 0.9510565162951535
0.3052124823898888 -0.048340908203385005 0.9510565162951535
0.4539904997395468 0.0 0.8910065241883679
0.4484011233337103 0.07101976096010308 0.8910065241883679
0.4317706231133892 0.1402907797042951 0.8910065241883679
0.4045084971874737 0.20610737385376346 0.8910065241883679
0.36728602957406853 0.26684892042779546 0.8910065241883679
0.3210197609601031 0.32101976096010304 0.8910065241883679
0.26684892042779546 0.36728602957406853 0.8910065241883679
0.20610737385376346 0.4045084971874737 0.8910065241883679
0.14029077970429513 0.4317706231133892 0.8910065241883679
0.0710197609601031 0.4484011233337103 0.8910065241883679
2.7798900617467165e-17 0.4539904997395468 0.8910065241883679
-0.07101976096010296 0.4484011233337103 0.8910065241883679
-0.14029077970429507 0.43177062311338926 0.8910065241883679
-0.20610737385376343 0.4045084971874737 0.8910065241883679
-0.26684892042779546 0.36728602957406853 0.8910065241883679
-0.32101976096010304 0.3210197609601031 0.8910065241883679
-0.3672860295740685 0.2668489204277955 0.8910065241883679
-0.40450849718747367 0.20610737385376346 0.8910065241883679
-0.4317706231133892 0.14029077970429515 0.8910065241883679
-0.44840112333371024 0.07101976096010312 0.8910065241883679
-0.4539904997395468 5.559780123493433e-17 0.8910065241883679
-0.4484011233337103 -0.07101976096010301 0.8910065241883679
-0.4317706231133893 -0.14029077970429488 0.8910065241883679
-0.4045084971874737 -0.2061073738537634 0.8910065241883679
-0.36728602957406853 -0.26684892042779546 0.8910065241883679
-0.32101976096010315 -0.32101976096010304 0.8910065241883679
-0.2668489204277955 -0.3672860295740685 0.8910065241883679
-0.20610737385376351 -0.40450849718747367 0.8910065241883679
-0.14029077970429515 -0.4317706231133892 0.8910065241883679
-0.07101976096010315 -0.44840112333371024 0.8910065241883679
-8.339670185240149e-17 -0.4539904997395468 0.8910065241883679
0.07101976096010298 -0.4484011233337103 0.8910065241883679
0.14029077970429502 -0.43177062311338926 0.8910065241883679
0.20610737385376338 -0.4045084971874737 0.8910065241883679
0.2668489204277954 -0.3672860295740686 0.8910065241883679
0.321019760960103 -0.32101976096010315 0.8910065241883679
0.3672860295740685 -0.26684892042779557 0.8910065241883679
0.40450849718747367 -0.20610737385376351 0.8910065241883679
0.4317706231133892 -0.1402907797042952 0.8910065241883679
0.44840112333371024 -0.07101976096010319 0.8910065241883679
0.5877852522924731 0.0 0.8090169943749475
0.5805486404630472 0.09194987150091018 0.8090169943749475
0.5590169943749475 0.1816356320013402 0.8090169943749475
0.5237204946142994 0.26684892042779546 0.8090169943749475
0.4755282581475768 0.3454915028125263 0.8090169943749475
0.41562693777745346 0.4156269377774534 0.8090169943749475
0.3454915028125263 0.4755282581475768 0.8090169943749475
0.2668489204277955 0.5237204946142994 0.8090169943749475
0.18163563200134025 0.5590169943749475 0.8090169943749475
0.0919498715009102 0.5805486404630472 0.8090169943749475
3.599146639029983e-17 0.5877852522924731 0.8090169943749475
-0.09194987150091001 0.5805486404630472 0.8090169943749475
-0.18163563200134017 0.5590169943749475 0.8090169943749475
-0.26684892042779546 0.5237204946142994 0.8090169943749475
-0.3454915028125262 0.4755282581475768 0.8090169943749475
-0.4156269377774534 0.41562693777745346 0.8090169943749475
-0.47552825814757677 0.3454915028125264 0.8090169943749475
-0.5237204946142994 0.2668489204277955 0.8090169943749475
-0.5590169943749475 0.18163563200134028 0.8090169943749475
-0.5805486404630471 0.09194987150091023 0.8090169943749475
-0.5877852522924731 7.198293278059966e-17 0.8090169943749475
-0.5805486404630472 -0.0919498715009101 0.8090169943749475
-0.5590169943749476 -0.18163563200133992 0.8090169943749475
-0.5237204946142994 -0.2668489204277954 0.8090169943749475
-0.4755282581475768 -0.3454915028125262 0.8090169943749475
-0.4156269377774535 -0.4156269377774534 0.8090169943749475
-0.3454915028125264 -0.47552825814757677 0.8090169943749475
-0.26684892042779557 -0.5237204946142994 0.8090169943749475
-0.1816356320013403 -0.5590169943749475 0.8090169943749475
-0.09194987150091027 -0.5805486404630471 0.8090169943749475
-1.079743991708995e-16 -0.5877852522924731 0.8090169943749475
0.09194987150091005 -0.5805486404630472 0.8090169943749475
0.1816356320013401 -0.5590169943749475 0.8090169943749475
0.2668489204277954 -0.5237204946142994 0.8090169943749475
0.34549150281252616 -0.4755282581475769 0.8090169943749475
0.41562693777745335 -0.4156269377774535 0.8090169943749475
0.47552825814757677 -0.34549150281252644 0.8090169943749475
0.5237204946142994 -0.26684892042779557 0.8090169943749475
0.5590169943749475 -0.18163563200134036 0.8090169943749475
0.5805486404630471 -0.09194987150091032 0.8090169943749475
0.7071067811865475 0.0 0.7071067811865476
0.6984011233337103 0.11061587104123714 0.7071067811865476
0.6724985119639573 0.2185080122244105 0.7071067811865476
0.6300367553350504 0.32101976096010304 0.7071067811865476
0.5720614028176843 0.4156269377774534 0.7071067811865476
0.5 0.4999999999999999 0.7071067811865476
0.4156269377774534 0.5720614028176843 0.7071067811865476
0.3210197609601031 0.6300367553350504 0.7071067811865476
0.21850801222441055 0.6724985119639573 0.7071067811865476
0.11061587104123717 0.6984011233337103 0.7071067811865476
4.329780281177466e-17 0.7071067811865475 0.7071067811865476
-0.11061587104123694 0.6984011233337103 0.7071067811865476
-0.21850801222441046 0.6724985119639573 0.7071067811865476
-0.32101976096010304 0.6300367553350504 0.7071067811865476
-0.4156269377774533 0.5720614028176843 0.7071067811865476
-0.4999999999999999 0.5 0.7071067811865476
-0.5720614028176841 0.41562693777745346 0.7071067811865476
-0.6300367553350504 0.3210197609601031 0.7071067811865476
-0.6724985119639573 0.21850801222441057 0.7071067811865476
-0.6984011233337102 0.11061587104123721 0.7071067811865476
-0.7071067811865475 8.659560562354932e-17 0.7071067811865476
-0.6984011233337103 -0.11061587104123705 0.7071067811865476
-0.6724985119639574 -0.21850801222441013 0.7071067811865476
-0.6300367553350504 -0.321019760960103 0.7071067811865476
-0.5720614028176843 -0.4156269377774533 0.7071067811865476
-0.5000000000000001 -0.4999999999999999 0.7071067811865476
-0.41562693777745346 -0.5720614028176841 0.7071067811865476
-0.32101976096010315 -0.6300367553350504 0.7071067811865476
-0.2185080122244106 -0.6724985119639573 0.7071067811865476
-0.11061587104123725 -0.6984011233337102 0.7071067811865476
-1.2989340843532398e-16 -0.7071067811865475 0.7071067811865476
0.110615871041237 -0.6984011233337103 0.7071067811865476
0.21850801222441038 -0.6724985119639573 0.7071067811865476
0.32101976096010293 -0.6300367553350504 0.7071067811865476
0.41562693777745324 -0.5720614028176844 0.7071067811865476
0.49999999999999983 -0.5000000000000001 0.7071067811865476
0.5720614028176841 -0.4156269377774536 0.7071067811865476
0.6300367553350504 -0.32101976096010315 0.7071067811865476
0.6724985119639573 -0.21850801222441069 0.7071067811865476
0.6984011233337102 -0.11061587104123731 0.7071067811865476
0.8090169943749475 0.0 0.5877852522924731
0.7990566526874577 0.12655814072350038 0.5877852522924731
0.7694208842938134 0.24999999999999997 0.5877852522924731
0.7208394201673423 0.36728602957406853 0.5877852522924731
0.6545084971874737 0.4755282581475768 0.5877852522924731
0.5720614028176844 0.5720614028176843 0.5877852522924731
0.4755282581475768 0.6545084971874737 0.5877852522924731
0.3672860295740686 0.7208394201673423 0.5877852522924731
0.25000000000000006 0.7694208842938134 0.5877852522924731
0.1265581407235004 0.7990566526874577 0.5877852522924731
4.953800363085458e-17 0.8090169943749475 0.5877852522924731
-0.12655814072350013 0.7990566526874577 0.5877852522924731
-0.24999999999999994 0.7694208842938134 0.5877852522924731
-0.3672860295740685 0.7208394201673423 0.5877852522924731
-0.4755282581475767 0.6545084971874737 0.5877852522924731
-0.5720614028176843 0.5720614028176844 0.5877852522924731
-0.6545084971874736 0.4755282581475769 0.5877852522924731
-0.7208394201673423 0.3672860295740686 0.5877852522924731
-0.7694208842938134 0.25000000000000006 0.5877852522924731
-0.7990566526874576 0.12655814072350047 0.5877852522924731
-0.8090169943749475 9.907600726170916e-17 0.5877852522924731
-0.7990566526874577 -0.12655814072350025 0.5877852522924731
-0.7694208842938135 -0.24999999999999958 0.5877852522924731
-0.7208394201673423 -0.3672860295740684 0.5877852522924731
-0.6545084971874737 -0.4755282581475767 0.5877852522924731
-0.5720614028176845 -0.5720614028176843 0.5877852522924731
-0.4755282581475769 -0.6545084971874736 0.5877852522924731
-0.36728602957406864 -0.7208394201673423 0.5877852522924731
-0.2500000000000001 -0.7694208842938134 0.5877852522924731
-0.1265581407235005 -0.7990566526874576 0.5877852522924731
-1.4861401089256373e-16 -0.8090169943749475 0.5877852522924731
0.12655814072350022 -0.7990566526874577 0.5877852522924731
0.24999999999999986 -0.7694208842938134 0.5877852522924731
0.36728602957406836 -0.7208394201673423 0.5877852522924731
0.47552825814757665 -0.6545084971874738 0.5877852522924731
0.5720614028176841 -0.5720614028176845 0.5877852522924731
0.6545084971874736 -0.475528258147577 0.5877852522924731
0.7208394201673423 -0.36728602957406864 0.5877852522924731
0.7694208842938134 -0.2500000000000002 0.5877852522924731
0.7990566526874576 -0.12655814072350058 0.5877852522924731
0.8910065241883679 0.0 0.45399049973954686
0.8800367553350505 0.13938412895876287 0.45399049973954686
0.8473975608908426 0.2753361580731583 0.45399049973954686
0.7938926261462367 0.4045084971874737 0.45399049973954686
0.7208394201673423 0.5237204946142994 0.45399049973954686
0.6300367553350505 0.6300367553350504 0.45399049973954686
0.5237204946142994 0.7208394201673423 0.45399049973954686
0.4045084971874738 0.7938926261462367 0.45399049973954686
0.27533615807315837 0.8473975608908426 0.45399049973954686
0.1393841289587629 0.8800367553350505 0.45399049973954686
5.4558414393334676e-17 0.8910065241883679 0.45399049973954686
-0.13938412895876262 0.8800367553350505 0.45399049973954686
-0.27533615807315825 0.8473975608908427 0.45399049973954686
-0.40450849718747367 0.7938926261462367 0.45399049973954686
-0.5237204946142993 0.7208394201673423 0.45399049973954686
-0.6300367553350504 0.6300367553350505 0.45399049973954686
-0.7208394201673423 0.5237204946142995 0.45399049973954686
-0.7938926261462366 0.4045084971874738 0.45399049973954686
-0.8473975608908426 0.2753361580731584 0.45399049973954686
-0.8800367553350504 0.13938412895876295 0.45399049973954686
-0.8910065241883679 1.0911682878666935e-16 0.45399049973954686
-0.8800367553350505 -0.13938412895876273 0.45399049973954686
-0.8473975608908428 -0.27533615807315787 0.45399049973954686
-0.7938926261462367 -0.4045084971874736 0.45399049973954686
-0.7208394201673423 -0.5237204946142993 0.45399049973954686
-0.6300367553350507 -0.6300367553350504 0.45399049973954686
-0.5237204946142995 -0.7208394201673423 0.45399049973954686
-0.4045084971874739 -0.7938926261462366 0.45399049973954686
-0.2753361580731585 -0.8473975608908426 0.45399049973954686
-0.139384128958763 -0.8800367553350504 0.45399049973954686
-1.6367524318000401e-16 -0.8910065241883679 0.45399049973954686
0.13938412895876268 -0.8800367553350505 0.45399049973954686
0.27533615807315814 -0.8473975608908427 0.45399049973954686
0.4045084971874736 -0.7938926261462367 0.45399049973954686
0.5237204946142991 -0.7208394201673424 0.45399049973954686
0.6300367553350503 -0.6300367553350507 0.45399049973954686
0.7208394201673423 -0.5237204946142996 0.45399049973954686
0.7938926261462366 -0.4045084971874739 0.45399049973954686
0.8473975608908426 -0.2753361580731586 0.45399049973954686
0.8800367553350504 -0.1393841289587631 0.45399049973954686
0.9510565162951535 0.0 0.30901699437494745
0.9393474323917528 0.14877801734965795 0.30901699437494745
0.9045084971874736 0.2938926261462365 0.30901699437494745
0.8473975608908426 0.4317706231133892 0.30901699437494745
0.7694208842938134 0.5590169943749475 0.30901699437494745
0.6724985119639574 0.6724985119639573 0.30901699437494745
0.5590169943749475 0.7694208842938134 0.30901699437494745
0.43177062311338926 0.8473975608908426 0.30901699437494745
0.29389262614623657 0.9045084971874736 0.30901699437494745
0.148778017349658 0.9393474323917528 0.30901699437494745
5.823541592445462e-17 0.9510565162951535 0.30901699437494745
-0.1487780173496577 0.9393474323917528 0.30901699437494745
-0.29389262614623646 0.9045084971874737 0.30901699437494745
-0.43177062311338915 0.8473975608908426 0.30901699437494745
-0.5590169943749473 0.7694208842938134 0.30901699437494745
-0.6724985119639573 0.6724985119639574 0.30901699437494745
-0.7694208842938133 0.5590169943749476 0.30901699437494745
-0.8473975608908425 0.43177062311338926 0.30901699437494745
-0.9045084971874736 0.2938926261462366 0.30901699437494745
-0.9393474323917527 0.14877801734965806 0.30901699437494745
-0.9510565162951535 1.1647083184890923e-16 0.30901699437494745
-0.9393474323917528 -0.14877801734965782 0.30901699437494745
-0.9045084971874738 -0.29389262614623607 0.30901699437494745
-0.8473975608908426 -0.4317706231133891 0.30901699437494745
-0.7694208842938134 -0.5590169943749473 0.30901699437494745
-0.6724985119639575 -0.6724985119639573 0.30901699437494745
-0.5590169943749476 -0.7694208842938133 0.30901699437494745
-0.4317706231133894 -0.8473975608908425 0.30901699437494745
-0.2938926261462367 -0.9045084971874736 0.30901699437494745
-0.14877801734965812 -0.9393474323917527 0.30901699437494745
-1.7470624777336384e-16 -0.9510565162951535 0.30901699437494745
0.14877801734965776 -0.9393474323917528 0.30901699437494745
0.29389262614623635 -0.9045084971874737 0.30901699437494745
0.43177062311338904 -0.8473975608908426 0.30901699437494745
0.5590169943749472 -0.7694208842938135 0.30901699437494745
0.6724985119639572 -0.6724985119639575 0.30901699437494745
0.7694208842938133 -0.5590169943749477 0.30901699437494745
0.8473975608908425 -0.4317706231133894 0.30901699437494745
0.9045084971874736 -0.2938926261462368 0.30901699437494745
0.9393474323917527 -0.1487780173496582 0.30901699437494745
0.9876883405951378 0.0 0.15643446504023092
0.9755282581475768 0.15450849718747373 0.15643446504023092
0.9393474323917528 0.3052124823898888 0.15643446504023092
0.8800367553350505 0.4484011233337103 0.15643446504023092
0.7990566526874577 0.5805486404630472 0.15643446504023092
0.6984011233337104 0.6984011233337103 0.15643446504023092
0.5805486404630472 0.7990566526874577 0.15643446504023092
0.44840112333371035 0.8800367553350505 0.15643446504023092
0.30521248238988885 0.9393474323917528 0.15643446504023092
0.15450849718747378 0.9755282581475768 0.15643446504023092
6.047846824324981e-17 0.9876883405951378 0.15643446504023092
-0.15450849718747345 0.9755282581475768 0.15643446504023092
-0.30521248238988874 0.9393474323917529 0.15643446504023092
-0.44840112333371024 0.8800367553350505 0.15643446504023092
-0.5805486404630471 0.7990566526874577 0.15643446504023092
-0.6984011233337103 0.6984011233337104 0.15643446504023092
-0.7990566526874576 0.5805486404630473 0.15643446504023092
-0.8800367553350504 0.44840112333371035 0.15643446504023092
-0.9393474323917528 0.3052124823898889 0.15643446504023092
-0.9755282581475767 0.15450849718747384 0.15643446504023092
-0.9876883405951378 1.2095693648649962e-16 0.15643446504023092
-0.9755282581475768 -0.1545084971874736 0.15643446504023092
-0.939347432391753 -0.3052124823898883 0.15643446504023092
-0.8800367553350505 -0.4484011233337102 0.15643446504023092
-0.7990566526874577 -0.5805486404630471 0.15643446504023092
-0.6984011233337105 -0.6984011233337103 0.15643446504023092
-0.5805486404630473 -0.7990566526874576 0.15643446504023092
-0.44840112333371046 -0.8800367553350504 0.15643446504023092
-0.30521248238988896 -0.9393474323917528 0.15643446504023092
-0.1545084971874739 -0.9755282581475767 0.15643446504023092
-1.8143540472974943e-16 -0.9876883405951378 0.15643446504023092
0.15450849718747353 -0.9755282581475768 0.15643446504023092
0.30521248238988863 -0.9393474323917529 0.15643446504023092
0.4484011233337101 -0.8800367553350505 0.15643446504023092
0.580548640463047 -0.7990566526874578 0.15643446504023092
0.6984011233337102 -0.6984011233337105 0.15643446504023092
0.7990566526874576 -0.5805486404630474 0.15643446504023092
0.8800367553350504 -0.44840112333371046 0.15643446504023092
0.9393474323917528 -0.3052124823898891 0.15643446504023092
0.9755282581475767 -0.15450849718747398 0.15643446504023092
1.0 0.0 6.123233995736766e-17
0.9876883405951378 0.15643446504023087 6.123233995736766e-17
0.9510565162951535 0.3090169943749474 6.123233995736766e-17
0.8910065241883679 0.4539904997395468 6.123233995736766e-17
0.8090169943749475 0.5877852522924731 6.123233995736766e-17
0.7071067811865476 0.7071067811865475 6.123233995736766e-17
0.5877852522924731 0.8090169943749475 6.123233995736766e-17
0.45399049973954686 0.8910065241883679 6.123233995736766e-17
0.30901699437494745 0.9510565162951535 6.123233995736766e-17
0.15643446504023092 0.9876883405951378 6.123233995736766e-17
6.123233995736766e-17 1.0 6.123233995736766e-17
-0.1564344650402306 0.9876883405951378 6.123233995736766e-17
-0.30901699437494734 0.9510565162951536 6.123233995736766e-17
-0.45399049973954675 0.8910065241883679 6.123233995736766e-17
-0.587785252292473 0.8090169943749475 6.123233995736766e-17
-0.7071067811865475 0.7071067811865476 6.123233995736766e-17
-0.8090169943749473 0.5877852522924732 6.123233995736766e-17
-0.8910065241883678 0.45399049973954686 6.123233995736766e-17
-0.9510565162951535 0.3090169943749475 6.123233995736766e-17
-0.9876883405951377 0.15643446504023098 6.123233995736766e-17
-1.0 1.2246467991473532e-16 6.123233995736766e-17
-0.9876883405951378 -0.15643446504023073 6.123233995736766e-17
-0.9510565162951538 -0.3090169943749469 6.123233995736766e-17
-0.8910065241883679 -0.4539904997395467 6.123233995736766e-17
-0.8090169943749475 -0.587785252292473 6.123233995736766e-17
-0.7071067811865477 -0.7071067811865475 6.123233995736766e-17
-0.5877852522924732 -0.8090169943749473 6.123233995736766e-17
-0.45399049973954697 -0.8910065241883678 6.123233995736766e-17
-0.30901699437494756 -0.9510565162951535 6.123233995736766e-17
-0.15643446504023104 -0.9876883405951377 6.123233995736766e-17
-1.8369701987210297e-16 -1.0 6.123233995736766e-17
0.15643446504023067 -0.9876883405951378 6.123233995736766e-17
0.30901699437494723 -0.9510565162951536 6.123233995736766e-17
0.45399049973954664 -0.8910065241883679 6.123233995736766e-17
0.5877852522924729 -0.8090169943749476 6.123233995736766e-17
0.7071067811865474 -0.7071067811865477 6.123233995736766e-17
0.8090169943749473 -0.5877852522924734 6.123233995736766e-17
0.8910065241883678 -0.45399049973954697 6.123233995736766e-17
0.9510565162951535 -0.3090169943749477 6.123233995736766e-17
0.9876883405951377 -0.15643446504023112 6.123233995736766e-17
0.9876883405951378 0.0 -0.1564344650402306
0.9755282581475768 0.15450849718747373 -0.1564344650402306
0.9393474323917528 0.3052124823898888 -0.1564344650402306
0.8800367553350505 0.4484011233337103 -0.1564344650402306
0.7990566526874577 0.5805486404630472 -0.1564344650402306
0.6984011233337104 0.6984011233337103 -0.1564344650402306
0.5805486404630472 0.7990566526874577 -0.1564344650402306
0.44840112333371035 0.8800367553350505 -0.1564344650402306
0.30521248238988885 0.9393474323917528 -0.1564344650402306
0.15450849718747378 0.9755282581475768 -0.1564344650402306
6.047846824324981e-17 0.9876883405951378 -0.1564344650402306
-0.15450849718747345 0.9755282581475768 -0.1564344650402306
-0.30521248238988874 0.9393474323917529 -0.1564344650402306
-0.44840112333371024 0.8800367553350505 -0.1564344650402306
-0.5805486404630471 0.7990566526874577 -0.1564344650402306
-0.6984011233337103 0.6984011233337104 -0.1564344650402306
-0.7990566526874576 0.5805486404630473 -0.1564344650402306
-0.8800367553350504 0.44840112333371035 -0.1564344650402306
-0.9393474323917528 0.3052124823898889 -0.1564344650402306
-0.9755282581475767 0.15450849718747384 -0.1564344650402306
-0.9876883405951378 1.2095693648649962e-16 -0.1564344650402306
-0.9755282581475768 -0.1545084971874736 -0.1564344650402306
-0.939347432391753 -0.3052124823898883 -0.1564344650402306
-0.8800367553350505 -0.4484011233337102 -0.1564344650402306
-0.7990566526874577 -0.5805486404630471 -0.1564344650402306
-0.6984011233337105 -0.6984011233337103 -0.1564344650402306
-0.5805486404630473 -0.7990566526874576 -0.1564344650402306
-0.44840112333371046 -0.8800367553350504 -0.1564344650402306
-0.30521248238988896 -0.9393474323917528 -0.1564344650402306
-0.1545084971874739 -0.9755282581475767 -0.1564344650402306
-1.8143540472974943e-16 -0.9876883405951378 -0.1564344650402306
0.15450849718747353 -0.9755282581475768 -0.1564344650402306
0.30521248238988863 -0.9393474323917529 -0.1564344650402306
0.4484011233337101 -0.8800367553350505 -0.1564344650402306
0.580548640463047 -0.7990566526874578 -0.1564344650402306
0.6984011233337102 -0.6984011233337105 -0.1564344650402306
0.7990566526874576 -0.5805486404630474 -0.1564344650402306
0.8800367553350504 -0.44840112333371046 -0.1564344650402306
0.9393474323917528 -0.3052124823898891 -0.1564344650402306
0.9755282581475767 -0.15450849718747398 -0.1564344650402306
0.9510565162951536 0.0 -0.30901699437494734
0.9393474323917529 0.14877801734965798 -0.30901699437494734
0.9045084971874737 0.29389262614623657 -0.30901699437494734
0.8473975608908427 0.43177062311338926 -0.30901699437494734
0.7694208842938134 0.5590169943749475 -0.30901699437494734
0.6724985119639574 0.6724985119639573 -0.30901699437494734
0.5590169943749475 0.7694208842938134 -0.30901699437494734
0.4317706231133893 0.8473975608908427 -0.30901699437494734
0.2938926261462366 0.9045084971874737 -0.30901699437494734
0.14877801734965804 0.9393474323917529 -0.30901699437494734
5.823541592445463e-17 0.9510565162951536 -0.30901699437494734
-0.1487780173496577 0.9393474323917529 -0.30901699437494734
-0.2938926261462365 0.9045084971874738 -0.30901699437494734
-0.4317706231133892 0.8473975608908427 -0.30901699437494734
-0.5590169943749473 0.7694208842938134 -0.30901699437494734
-0.6724985119639573 0.6724985119639574 -0.30901699437494734
-0.7694208842938133 0.5590169943749476 -0.30901699437494734
-0.8473975608908426 0.4317706231133893 -0.30901699437494734
-0.9045084971874737 0.2938926261462367 -0.30901699437494734
-0.9393474323917528 0.14877801734965806 -0.30901699437494734
-0.9510565162951536 1.1647083184890926e-16 -0.30901699437494734
-0.9393474323917529 -0.14877801734965784 -0.30901699437494734
-0.904508497187474 -0.29389262614623607 -0.30901699437494734
-0.8473975608908427 -0.43177062311338915 -0.30901699437494734
-0.7694208842938134 -0.5590169943749473 -0.30901699437494734
-0.6724985119639575 -0.6724985119639573 -0.30901699437494734
-0.5590169943749476 -0.7694208842938133 -0.30901699437494734
-0.4317706231133894 -0.8473975608908426 -0.30901699437494734
-0.29389262614623674 -0.9045084971874737 -0.30901699437494734
-0.14877801734965812 -0.9393474323917528 -0.30901699437494734
-1.7470624777336386e-16 -0.9510565162951536 -0.30901699437494734
0.1487780173496578 -0.9393474323917529 -0.30901699437494734
0.2938926261462364 -0.9045084971874738 -0.30901699437494734
0.4317706231133891 -0.8473975608908427 -0.30901699437494734
0.5590169943749472 -0.7694208842938135 -0.30901699437494734
0.6724985119639572 -0.6724985119639575 -0.30901699437494734
0.7694208842938133 -0.5590169943749477 -0.30901699437494734
0.8473975608908426 -0.4317706231133894 -0.30901699437494734
0.9045084971874737 -0.29389262614623685 -0.30901699437494734
0.9393474323917528 -0.1487780173496582 -0.30901699437494734
0.8910065241883679 0.0 -0.45399049973954675
0.8800367553350505 0.13938412895876287 -0.45399049973954675
0.8473975608908426 0.2753361580731583 -0.45399049973954675
0.7938926261462367 0.4045084971874737 -0.45399049973954675
0.7208394201673423 0.5237204946142994 -0.45399049973954675
0.6300367553350505 0.6300367553350504 -0.45399049973954675
0.5237204946142994 0.7208394201673423 -0.45399049973954675
0.4045084971874738 0.7938926261462367 -0.45399049973954675
0.27533615807315837 0.8473975608908426 -0.45399049973954675
0.1393841289587629 0.8800367553350505 -0.45399049973954675
5.4558414393334676e-17 0.8910065241883679 -0.45399049973954675
-0.13938412895876262 0.8800367553350505 -0.45399049973954675
-0.27533615807315825 0.8473975608908427 -0.45399049973954675
-0.40450849718747367 0.7938926261462367 -0.45399049973954675
-0.5237204946142993 0.7208394201673423 -0.45399049973954675
-0.6300367553350504 0.6300367553350505 -0.45399049973954675
-0.7208394201673423 0.5237204946142995 -0.45399049973954675
-0.7938926261462366 0.4045084971874738 -0.45399049973954675
-0.8473975608908426 0.2753361580731584 -0.45399049973954675
-0.8800367553350504 0.13938412895876295 -0.45399049973954675
-0.8910065241883679 1.0911682878666935e-16 -0.45399049973954675
-0.8800367553350505 -0.13938412895876273 -0.45399049973954675
-0.8473975608908428 -0.27533615807315787 -0.45399049973954675
-0.7938926261462367 -0.4045084971874736 -0.45399049973954675
-0.7208394201673423 -0.5237204946142993 -0.45399049973954675
-0.6300367553350507 -0.6300367553350504 -0.45399049973954675
-0.5237204946142995 -0.7208394201673423 -0.45399049973954675
-0.4045084971874739 -0.7938926261462366 -0.45399049973954675
-0.2753361580731585 -0.8473975608908426 -0.45399049973954675
-0.139384128958763 -0.8800367553350504 -0.45399049973954675
-1.6367524318000401e-16 -0.8910065241883679 -0.45399049973954675
0.13938412895876268 -0.8800367553350505 -0.45399049973954675
0.27533615807315814 -0.8473975608908427 -0.45399049973954675
0.4045084971874736 -0.7938926261462367 -0.45399049973954675
0.5237204946142991 -0.7208394201673424 -0.45399049973954675
0.6300367553350503 -0.6300367553350507 -0.45399049973954675
0.7208394201673423 -0.5237204946142996 -0.45399049973954675
0.7938926261462366 -0.4045084971874739 -0.45399049973954675
0.8473975608908426 -0.2753361580731586 -0.45399049973954675
0.8800367553350504 -0.1393841289587631 -0.45399049973954675
0.8090169943749475 0.0 -0.587785252292473
0.7990566526874577 0.12655814072350038 -0.587785252292473
0.7694208842938134 0.24999999999999997 -0.587785252292473
0.7208394201673423 0.36728602957406853 -0.587785252292473
0.6545084971874737 0.4755282581475768 -0.587785252292473
0.5720614028176844 0.5720614028176843 -0.587785252292473
0.4755282581475768 0.6545084971874737 -0.587785252292473
0.3672860295740686 0.7208394201673423 -0.587785252292473
0.25000000000000006 0.7694208842938134 -0.587785252292473
0.1265581407235004 0.7990566526874577 -0.587785252292473
4.953800363085458e-17 0.8090169943749475 -0.587785252292473
-0.12655814072350013 0.7990566526874577 -0.587785252292473
-0.24999999999999994 0.7694208842938134 -0.587785252292473
-0.3672860295740685 0.7208394201673423 -0.587785252292473
-0.4755282581475767 0.6545084971874737 -0.587785252292473
-0.5720614028176843 0.5720614028176844 -0.587785252292473
-0.6545084971874736 0.4755282581475769 -0.587785252292473
-0.7208394201673423 0.3672860295740686 -0.587785252292473
-0.7694208842938134 0.25000000000000006 -0.587785252292473
-0.7990566526874576 0.12655814072350047 -0.587785252292473
-0.8090169943749475 9.907600726170916e-17 -0.587785252292473
-0.7990566526874577 -0.12655814072350025 -0.587785252292473
-0.7694208842938135 -0.24999999999999958 -0.587785252292473
-0.7208394201673423 -0.3672860295740684 -0.587785252292473
-0.6545084971874737 -0.4755282581475767 -0.587785252292473
-0.5720614028176845 -0.5720614028176843 -0.587785252292473
-0.4755282581475769 -0.6545084971874736 -0.587785252292473
-0.36728602957406864 -0.7208394201673423 -0.587785252292473
-0.2500000000000001 -0.7694208842938134 -0.587785252292473
-0.1265581407235005 -0.7990566526874576 -0.587785252292473
-1.4861401089256373e-16 -0.8090169943749475 -0.587785252292473
0.12655814072350022 -0.7990566526874577 -0.587785252292473
0.24999999999999986 -0.7694208842938134 -0.587785252292473
0.36728602957406836 -0.7208394201673423 -0.587785252292473
0.47552825814757665 -0.6545084971874738 -0.587785252292473
0.5720614028176841 -0.5720614028176845 -0.587785252292473
0.6545084971874736 -0.475528258147577 -0.587785252292473
0.7208394201673423 -0.36728602957406864 -0.587785252292473
0.7694208842938134 -0.2500000000000002 -0.587785252292473
0.7990566526874576 -0.12655814072350058 -0.587785252292473
0.7071067811865476 0.0 -0.7071067811865475
0.6984011233337104 0.11061587104123716 -0.7071067811865475
0.6724985119639574 0.21850801222441052 -0.7071067811865475
0.6300367553350505 0.3210197609601031 -0.7071067811865475
0.5720614028176844 0.41562693777745346 -0.7071067811865475
0.5000000000000001 0.5 -0.7071067811865475
0.41562693777745346 0.5720614028176844 -0.7071067811865475
0.32101976096010315 0.6300367553350505 -0.7071067811865475
0.21850801222441057 0.6724985119639574 -0.7071067811865475
0.1106158710412372 0.6984011233337104 -0.7071067811865475
4.329780281177467e-17 0.7071067811865476 -0.7071067811865475
-0.11061587104123696 0.6984011233337104 -0.7071067811865475
-0.2185080122244105 0.6724985119639574 -0.7071067811865475
-0.32101976096010304 0.6300367553350505 -0.7071067811865475
-0.4156269377774534 0.5720614028176844 -0.7071067811865475
-0.5 0.5000000000000001 -0.7071067811865475
-0.5720614028176843 0.4156269377774535 -0.7071067811865475
-0.6300367553350504 0.32101976096010315 -0.7071067811865475
-0.6724985119639574 0.2185080122244106 -0.7071067811865475
-0.6984011233337103 0.11061587104123724 -0.7071067811865475
-0.7071067811865476 8.659560562354934e-17 -0.7071067811865475
-0.6984011233337104 -0.11061587104123706 -0.7071067811865475
-0.6724985119639575 -0.2185080122244102 -0.7071067811865475
-0.6300367553350505 -0.32101976096010304 -0.7071067811865475
-0.5720614028176844 -0.4156269377774534 -0.7071067811865475
-0.5000000000000001 -0.5 -0.7071067811865475
-0.4156269377774535 -0.5720614028176843 -0.7071067811865475
-0.3210197609601032 -0.6300367553350504 -0.7071067811865475
-0.21850801222441066 -0.6724985119639574 -0.7071067811865475
-0.11061587104123727 -0.6984011233337103 -0.7071067811865475
-1.29893408435324e-16 -0.7071067811865476 -0.7071067811865475
0.11061587104123702 -0.6984011233337104 -0.7071067811865475
0.2185080122244104 -0.6724985119639574 -0.7071067811865475
0.321019760960103 -0.6300367553350505 -0.7071067811865475
0.4156269377774533 -0.5720614028176845 -0.7071067811865475
0.4999999999999999 -0.5000000000000001 -0.7071067811865475
0.5720614028176843 -0.41562693777745363 -0.7071067811865475
0.6300367553350504 -0.3210197609601032 -0.7071067811865475
0.6724985119639574 -0.2185080122244107 -0.7071067811865475
0.6984011233337103 -0.11061587104123734 -0.7071067811865475
0.5877852522924732 0.0 -0.8090169943749473
0.5805486404630473 0.09194987150091019 -0.8090169943749473
0.5590169943749476 0.18163563200134025 -0.8090169943749473
0.5237204946142995 0.2668489204277955 -0.8090169943749473
0.4755282581475769 0.3454915028125264 -0.8090169943749473
0.4156269377774535 0.41562693777745346 -0.8090169943749473
0.3454915028125264 0.4755282581475769 -0.8090169943749473
0.26684892042779557 0.5237204946142995 -0.8090169943749473
0.18163563200134028 0.5590169943749476 -0.8090169943749473
0.09194987150091022 0.5805486404630473 -0.8090169943749473
3.599146639029984e-17 0.5877852522924732 -0.8090169943749473
-0.09194987150091002 0.5805486404630473 -0.8090169943749473
-0.1816356320013402 0.5590169943749476 -0.8090169943749473
-0.2668489204277955 0.5237204946142995 -0.8090169943749473
-0.3454915028125263 0.4755282581475769 -0.8090169943749473
-0.41562693777745346 0.4156269377774535 -0.8090169943749473
-0.4755282581475768 0.34549150281252644 -0.8090169943749473
-0.5237204946142995 0.26684892042779557 -0.8090169943749473
-0.5590169943749476 0.1816356320013403 -0.8090169943749473
-0.5805486404630472 0.09194987150091025 -0.8090169943749473
-0.5877852522924732 7.198293278059968e-17 -0.8090169943749473
-0.5805486404630473 -0.09194987150091011 -0.8090169943749473
-0.5590169943749477 -0.18163563200133995 -0.8090169943749473
-0.5237204946142995 -0.26684892042779546 -0.8090169943749473
-0.4755282581475769 -0.3454915028125263 -0.8090169943749473
-0.41562693777745363 -0.41562693777745346 -0.8090169943749473
-0.34549150281252644 -0.4755282581475768 -0.8090169943749473
-0.2668489204277956 -0.5237204946142995 -0.8090169943749473
-0.18163563200134034 -0.5590169943749476 -0.8090169943749473
-0.09194987150091029 -0.5805486404630472 -0.8090169943749473
-1.0797439917089951e-16 -0.5877852522924732 -0.8090169943749473
0.09194987150091008 -0.5805486404630473 -0.8090169943749473
0.18163563200134014 -0.5590169943749476 -0.8090169943749473
0.26684892042779546 -0.5237204946142995 -0.8090169943749473
0.3454915028125262 -0.475528258147577 -0.8090169943749473
0.4156269377774534 -0.41562693777745363 -0.8090169943749473
0.4755282581475768 -0.3454915028125265 -0.8090169943749473
0.5237204946142995 -0.2668489204277956 -0.8090169943749473
0.5590169943749476 -0.1816356320013404 -0.8090169943749473
0.5805486404630472 -0.09194987150091033 -0.8090169943749473
0.45399049973954686 0.0 -0.8910065241883678
0.44840112333371035 0.07101976096010308 -0.8910065241883678
0.43177062311338926 0.1402907797042951 -0.8910065241883678
0.4045084971874738 0.20610737385376346 -0.8910065241883678
0.3672860295740686 0.2668489204277955 -0.8910065241883678
0.32101976096010315 0.3210197609601031 -0.8910065241883678
0.2668489204277955 0.3672860295740686 -0.8910065241883678
0.2061073738537635 0.4045084971874738 -0.8910065241883678
0.14029077970429513 0.43177062311338926 -0.8910065241883678
0.07101976096010311 0.44840112333371035 -0.8910065241883678
2.7798900617467165e-17 0.45399049973954686 -0.8910065241883678
-0.07101976096010296 0.44840112333371035 -0.8910065241883678
-0.14029077970429507 0.4317706231133893 -0.8910065241883678
-0.20610737385376346 0.4045084971874738 -0.8910065241883678
-0.26684892042779546 0.3672860295740686 -0.8910065241883678
-0.3210197609601031 0.32101976096010315 -0.8910065241883678
-0.36728602957406853 0.26684892042779557 -0.8910065241883678
-0.4045084971874737 0.2061073738537635 -0.8910065241883678
-0.43177062311338926 0.14029077970429515 -0.8910065241883678
-0.4484011233337103 0.07101976096010314 -0.8910065241883678
-0.45399049973954686 5.559780123493433e-17 -0.8910065241883678
-0.44840112333371035 -0.07101976096010303 -0.8910065241883678
-0.4317706231133893 -0.14029077970429488 -0.8910065241883678
-0.4045084971874738 -0.20610737385376343 -0.8910065241883678
-0.3672860295740686 -0.26684892042779546 -0.8910065241883678
-0.3210197609601032 -0.3210197609601031 -0.8910065241883678
-0.26684892042779557 -0.36728602957406853 -0.8910065241883678
-0.20610737385376354 -0.4045084971874737 -0.8910065241883678
-0.14029077970429518 -0.43177062311338926 -0.8910065241883678
-0.07101976096010316 -0.4484011233337103 -0.8910065241883678
-8.33967018524015e-17 -0.45399049973954686 -0.8910065241883678
0.071019760960103 -0.44840112333371035 -0.8910065241883678
0.14029077970429504 -0.4317706231133893 -0.8910065241883678
0.2061073738537634 -0.4045084971874738 -0.8910065241883678
0.2668489204277954 -0.36728602957406864 -0.8910065241883678
0.32101976096010304 -0.3210197609601032 -0.8910065241883678
0.36728602957406853 -0.2668489204277956 -0.8910065241883678
0.4045084971874737 -0.20610737385376354 -0.8910065241883678
0.43177062311338926 -0.14029077970429524 -0.8910065241883678
0.4484011233337103 -0.07101976096010319 -0.8910065241883678
0.3090169943749475 0.0 -0.9510565162951535
0.3052124823898889 0.04834090820338494 -0.9510565162951535
0.2938926261462366 0.0954915028125263 -0.9510565162951535
0.2753361580731584 0.14029077970429515 -0.9510565162951535
0.25000000000000006 0.18163563200134028 -0.9510565162951535
0.2185080122244106 0.21850801222441057 -0.9510565162951535
0.18163563200134028 0.25000000000000006 -0.9510565162951535
0.14029077970429515 0.2753361580731584 -0.9510565162951535
0.09549150281252632 0.2938926261462366 -0.9510565162951535
0.048340908203384964 0.3052124823898889 -0.9510565162951535
1.8921833652170756e-17 0.3090169943749475 -0.9510565162951535
-0.04834090820338486 0.3052124823898889 -0.9510565162951535
-0.09549150281252629 0.2938926261462367 -0.9510565162951535
-0.14029077970429513 0.2753361580731584 -0.9510565162951535
-0.18163563200134022 0.25000000000000006 -0.9510565162951535
-0.21850801222441057 0.2185080122244106 -0.9510565162951535
-0.25000000000000006 0.1816356320013403 -0.9510565162951535
-0.27533615807315837 0.14029077970429515 -0.9510565162951535
-0.2938926261462366 0.09549150281252634 -0.9510565162951535
-0.3052124823898889 0.04834090820338498 -0.9510565162951535
-0.3090169943749475 3.784366730434151e-17 -0.9510565162951535
-0.3052124823898889 -0.0483409082033849 -0.9510565162951535
-0.2938926261462367 -0.09549150281252615 -0.9510565162951535
-0.2753361580731584 -0.1402907797042951 -0.9510565162951535
-0.25000000000000006 -0.18163563200134022 -0.9510565162951535
-0.21850801222441063 -0.21850801222441057 -0.9510565162951535
-0.1816356320013403 -0.25000000000000006 -0.9510565162951535
-0.14029077970429518 -0.27533615807315837 -0.9510565162951535
-0.09549150281252636 -0.2938926261462366 -0.9510565162951535
-0.048340908203385 -0.3052124823898889 -0.9510565162951535
-5.676550095651227e-17 -0.3090169943749475 -0.9510565162951535
0.04834090820338489 -0.3052124823898889 -0.9510565162951535
0.09549150281252625 -0.2938926261462367 -0.9510565162951535
0.1402907797042951 -0.2753361580731584 -0.9510565162951535
0.1816356320013402 -0.2500000000000001 -0.9510565162951535
0.21850801222441055 -0.21850801222441063 -0.9510565162951535
0.25000000000000006 -0.18163563200134034 -0.9510565162951535
0.27533615807315837 -0.14029077970429518 -0.9510565162951535
0.2938926261462366 -0.09549150281252639 -0.9510565162951535
0.3052124823898889 -0.04834090820338502 -0.9510565162951535
0.15643446504023098 0.0 -0.9876883405951377
0.15450849718747384 0.02447174185242323 -0.9876883405951377
0.14877801734965806 0.048340908203384964 -0.9876883405951377
0.13938412895876295 0.07101976096010312 -0.9876883405951377
0.12655814072350047 0.09194987150091023 -0.9876883405951377
0.11061587104123724 0.11061587104123721 -0.9876883405951377
0.09194987150091023 0.12655814072350047 -0.9876883405951377
0.07101976096010314 0.13938412895876295 -0.9876883405951377
0.04834090820338497 0.14877801734965806 -0.9876883405951377
0.02447174185242324 0.15450849718747384 -0.9876883405951377
9.57884834439237e-18 0.15643446504023098 -0.9876883405951377
-0.02447174185242319 0.15450849718747384 -0.9876883405951377
-0.04834090820338495 0.14877801734965806 -0.9876883405951377
-0.07101976096010312 0.13938412895876295 -0.9876883405951377
-0.09194987150091022 0.12655814072350047 -0.9876883405951377
-0.11061587104123721 0.11061587104123724 -0.9876883405951377
-0.12655814072350044 0.09194987150091025 -0.9876883405951377
-0.13938412895876293 0.07101976096010314 -0.9876883405951377
-0.14877801734965806 0.04834090820338498 -0.9876883405951377
-0.1545084971874738 0.02447174185242325 -0.9876883405951377
-0.15643446504023098 1.915769668878474e-17 -0.9876883405951377
-0.15450849718747384 -0.02447174185242321 -0.9876883405951377
-0.1487780173496581 -0.04834090820338488 -0.9876883405951377
-0.13938412895876295 -0.07101976096010311 -0.9876883405951377
-0.12655814072350047 -0.09194987150091022 -0.9876883405951377
-0.11061587104123725 -0.11061587104123721 -0.9876883405951377
-0.09194987150091025 -0.12655814072350044 -0.9876883405951377
-0.07101976096010315 -0.13938412895876293 -0.9876883405951377
-0.04834090820338499 -0.14877801734965806 -0.9876883405951377
-0.02447174185242326 -0.1545084971874738 -0.9876883405951377
-2.873654503317711e-17 -0.15643446504023098 -0.9876883405951377
0.0244717418524232 -0.15450849718747384 -0.9876883405951377
0.048340908203384936 -0.14877801734965806 -0.9876883405951377
0.0710197609601031 -0.13938412895876295 -0.9876883405951377
0.0919498715009102 -0.12655814072350047 -0.9876883405951377
0.1106158710412372 -0.11061587104123725 -0.9876883405951377
0.12655814072350044 -0.09194987150091027 -0.9876883405951377
0.13938412895876293 -0.07101976096010315 -0.9876883405951377
0.14877801734965806 -0.048340908203385005 -0.9876883405951377
0.1545084971874738 -0.02447174185242327 -0.9876883405951377
1.2246467991473532e-16 0.0 -1.0
1.2095693648649962e-16 1.9157696688784726e-17 -1.0
1.1647083184890923e-16 3.78436673043415e-17 -1.0
1.0911682878666935e-16 5.559780123493433e-17 -1.0
9.907600726170916e-17 7.198293278059966e-17 -1.0
8.659560562354934e-17 8.659560562354932e-17 -1.0
7.198293278059966e-17 9.907600726170916e-17 -1.0
5.559780123493433e-17 1.0911682878666935e-16 -1.0
3.7843667304341506e-17 1.1647083184890923e-16 -1.0
1.9157696688784732e-17 1.2095693648649962e-16 -1.0
7.498798913309288e-33 1.2246467991473532e-16 -1.0
-1.9157696688784692e-17 1.2095693648649962e-16 -1.0
-3.7843667304341493e-17 1.1647083184890926e-16 -1.0
-5.559780123493432e-17 1.0911682878666935e-16 -1.0
-7.198293278059965e-17 9.907600726170916e-17 -1.0
-8.659560562354932e-17 8.659560562354934e-17 -1.0
-9.907600726170915e-17 7.198293278059968e-17 -1.0
-1.0911682878666934e-16 5.559780123493433e-17 -1.0
-1.1647083184890923e-16 3.784366730434151e-17 -1.0
-1.2095693648649962e-16 1.915769668878474e-17 -1.0
-1.2246467991473532e-16 1.4997597826618576e-32 -1.0
-1.2095693648649962e-16 -1.915769668878471e-17 -1.0
-1.1647083184890926e-16 -3.784366730434144e-17 -1.0
-1.0911682878666935e-16 -5.559780123493432e-17 -1.0
-9.907600726170916e-17 -7.198293278059965e-17 -1.0
-8.659560562354935e-17 -8.659560562354932e-17 -1.0
-7.198293278059968e-17 -9.907600726170915e-17 -1.0
-5.559780123493435e-17 -1.0911682878666934e-16 -1.0
-3.784366730434152e-17 -1.1647083184890923e-16 -1.0
-1.9157696688784747e-17 -1.2095693648649962e-16 -1.0
-2.2496396739927864e-32 -1.2246467991473532e-16 -1.0
1.91576966887847e-17 -1.2095693648649962e-16 -1.0
3.7843667304341475e-17 -1.1647083184890926e-16 -1.0
5.55978012349343e-17 -1.0911682878666935e-16 -1.0
7.198293278059964e-17 -9.907600726170918e-17 -1.0
8.65956056235493e-17 -8.659560562354935e-17 -1.0
9.907600726170915e-17 -7.19829327805997e-17 -1.0
1.0911682878666934e-16 -5.559780123493435e-17 -1.0
1.1647083184890923e-16 -3.784366730434153e-17 -1.0
1.2095693648649962e-16 -1.9157696688784756e-17 -1.0
3 1 40 41
3 2 41 42
3 3 42 43
3 4 43 44
3 5 44 45
3 6 45 46
3 7 46 47
3 8 47 48
3 9 48 49
3 10 49 50
3 11 50 51
3 12 51 52
3 13 52 53
3 14 53 54
3 15 54 55
3 16 55 56
3 17 56 57
3 18 57 58
3 19 58 59
3 20 59 60
3 21 60 61
3 22 61 62
3 23 62 63
3 24 63 64
3 25 64 65
3 26 65 66
3 27 66 67
3 28 67 68
3 29 68 69
3 30 69 70
3 31 70 71
3 32 71 72
3 33 72 73
3 34 73 74
3 35 74 75
3 36 75 76
3 37 76 77
3 38 77 78
3 39 78 79
3 0 79 40
3 40 80 41
3 41 80 81
3 41 81 42
3 42 81 82
3 42 82 43
3 43 82 83
3 43 83 44
3 44 83 84
3 44 84 45
3 45 84 85
3 45 85 46
3 46 85 86
3 46 86 47
3 47 86 87
3 47 87 48
3 48 87 88
3 48 88 49
3 49 88 89
3 49 89 50
3 50 89 90
3 50 90 51
3 51 90 91
3 51 91 52
3 52 91 92
3 52 92 53
3 53 92 93
3 53 93 54
3 54 93 94
3 54 94 55
3 55 94 95
3 55 95 56
3 56 95 96
3 56 96 57
3 57 96 97
3 57 97 58
3 58 97 98
3 58 98 59
3 59 98 99
3 59 99 60
3 60 99 100
3 60 100 61
3 61 100 101
3 61 101 62
3 62 101 102
3 62 102 63
3 63 102 103
3 63 103 64
3 64 103 104
3 64 104 65
3 65 104 105
3 65 105 66
3 66 105 106
3 66 106 67
3 67 106 107
3 67 107 68
3 68 107 108
3 68 108 69
3 69 108 109
3 69 109 70
3 70 109 110
3 70 110 71
3 71 110 111
3 71 111 72
3 72 111 112
3 72 112 73
3 73 112 113
3 73 113 74
3 74 113 114
3 74 114 75
3 75 114 115
3 75 115 76
3 76 115 116
3 76 116 77
3 77 116 117
3 77 117 78
3 78 117 118
3 78 118 79
3 79 118 119
3 79 119 40
3 40 119 80
3 80 120 81
3 81 120 121
3 81 121 82
3 82 121 122
3 82 122 83
3 83 122 123
3 83 123 84
3 84 123 124
3 84 124 85
3 85 124 125
3 85 125 86
3 86 125 126
3 86 126 87
3 87 126 127
3 87 127 88
3 88 127 128
3 88 128 89
3 89 128 129
3 89 129 90
3 90 129 130
3 90 130 91
3 91 130 131
3 91 131 92
3 92 131 132
3 92 132 93
3 93 132 133
3 93 133 94
3 94 133 134
3 94 134 95
3 95 134 135
3 95 135 96
3 96 135 136
3 96 136 97
3 97 136 137
3 97 137 98
3 98 137 138
3 98 138 99
3 99 138 139
3 99 139 100
3 100 139 140
3 100 140 101
3 101 140 141
3 101 141 102
3 102 141 142
3 102 142 103
3 103 142 143
3 103 143 104
3 104 143 144
3 104 144 105
3 105 144 145
3 105 145 106
3 106 145 146
3 106 146 107
3 107 146 147
3 107 147 108
3 108 147 148
3 108 148 109
3 109 148 149
3 109 149 110
3 110 149 150
3 110 150 111
3 111 150 151
3 111 151 112
3 112 151 152
3 112 152 113
3 113 152 153
3 113 153 114
3 114 153 154
3 114 154 115
3 115 154 155
3 115 155 116
3 116 155 156
3 116 156 117
3 117 156 157
3 117 157 118
3 118 157 158
3 118 158 119
3 119 158 159
3 119 159 80
3 80 159 120
3 120 160 121
3 121 160 161
3 121 161 122
3 122 161 162
3 122 162 123
3 123 162 163
3 123 163 124
3 124 163 164
3 124 164 125
3 125 164 165
3 125 165 126
3 126 165 166
3 126 166 127
3 127 166 167
3 127 167 128
3 128 167 168
3 128 168 129
3 129 168 169
3 129 169 130
3 130 169 170
3 130 170 131
3 131 170 171
3 131 171 132
3 132 171 172
3 132 172 133
3 133 172 173
3 133 173 134
3 134 173 174
3 134 174 135
3 135 174 175
3 135 175 136
3 136 175 176
3 136 176 137
3 137 176 177
3 137 177 138
3 138 177 178
3 138 178 139
3 139 178 179
3 139 179 140
3 140 179 180
3 140 180 141
3 141 180 181
3 141 181 142
3 142 181 182
3 142 182 143
3 143 182 183
3 143 183 144
3 144 183 184
3 144 184 145
3 145 184 185
3 145 185 146
3 146 185 186
3 146 186 147
3 147 186 187
3 147 187 148
3 148 187 188
3 148 188 149
3 149 188 189
3 149 189 150
3 150 189 190
3 150 190 151
3 151 190 191
3 151 191 152
3 152 191 192
3 152 192 153
3 153 192 193
3 153 193 154
3 154 193 194
3 154 194 155
3 155 194 195
3 155 195 156
3 156 195 196
3 156 196 157
3 157 196 197
3 157 197 158
3 158 197 198
3 158 198 159
3 159 198 199
3 159 199 120
3 120 199 160
3 160 200 161
3 161 200 201
3 161 201 162
3 162 201 202
3 162 202 163
3 163 202 203
3 163 203 164
3 164 203 204
3 164 204 165
3 165 204 205
3 165 205 166
3 166 205 206
3 166 206 167
3 167 206 207
3 167 207 168
3 168 207 208
3 168 208 169
3 169 208 209
3 169 209 170
3 170 209 210
3 170 210 171
3 171 210 211
3 171 211 172
3 172 211 212
3 172 212 173
3 173 212 213
3 173 213 174
3 174 213 214
3 174 214 175
3 175 214 215
3 175 215 176
3 176 215 216
3 176 216 177
3 177 216 217
3 177 217 178
3 178 217 218
3 178 218 179
3 179 218 219
3 179 219 180
3 180 219 220
3 180 220 181
3 181 220 221
3 181 221 182
3 182 221 222
3 182 222 183
3 183 222 223
3 183 223 184
3 184 223 224
3 184 224 185
3 185 224 225
3 185 225 186
3 186 225 226
3 186 226 187
3 187 226 227
3 187 227 188
3 188 227 228
3 188 228 189
3 189 228 229
3 189 229 190
3 190 229 230
3 190 230 191
3 191 230 231
3 191 231 192
3 192 231 232
3 192 232 193
3 193 232 233
3 193 233 194
3 194 233 234
3 194 234 195
3 195 234 235
3 195 235 196
3 196 235 236
3 196 236 197
3 197 236 237
3 197 237 198
3 198 237 238
3 198 238 199
3 199 238 239
3 199 239 160
3 160 239 200
3 200 240 201
3 201 240 241
3 201 241 202
3 202 241 242
3 202 242 203
3 203 242 243
3 203 243 204
3 204 243 244
3 204 244 205
3 205 244 245
3 205 245 206
3 206 245 246
3 206 246 207
3 207 246 247
3 207 247 208
3 208 247 248
3 208 248 209
3 209 248 249
3 209 249 210
3 210 249 250
3 210 250 211
3 211 250 251
3 211 251 212
3 212 251 252
3 212 252 213
3 213 252 253
3 213 253 214
3 214 253 254
3 214 254 215
3 215 254 255
3 215 255 216
3 216 255 256
3 216 256 217
3 217 256 257
3 217 257 218
3 218 257 258
3 218 258 219
3 219 258 259
3 219 259 220
3 220 259 260
3 220 260 221
3 221 260 261
3 221 261 222
3 222 261 262
3 222 262 223
3 223 262 263
3 223 263 224
3 224 263 264
3 224 264 225
3 225 264 265
3 225 265 226
3 226 265 266
3 226 266 227
3 227 266 267
3 227 267 228
3 228 267 268
3 228 268 229
3 229 268 269
3 229 269 230
3 230 269 270
3 230 270 231
3 231 270 271
3 231 271 232
3 232 271 272
3 232 272 233
3 233 272 273
3 233 273 234
3 234 273 274
3 234 274 235
3 235 274 275
3 235 275 236
3 236 275 276
3 236 276 237
3 237 276 277
3 237 277 238
3 238 277 278
3 238 278 239
3 239 278 279
3 239 279 200
3 200 279 240
3 240 280 241
3 241 280 281
3 241 281 242
3 242 281 282
3 242 282 243
3 243 282 283
3 243 283 244
3 244 283 284
3 244 284 245
3 245 284 285
3 245 285 246
3 246 285 286
3 246 286 247
3 247 286 287
3 247 287 248
3 248 287 288
3 248 288 249
3 249 288 289
3 249 289 250
3 250 289 290
3 250 290 251
3 251 290 291
3 251 291 252
3 252 291 292
3 252 292 253
3 253 292 293
3 253 293 254
3 254 293 294
3 254 294 255
3 255 294 295
3 255 295 256
3 256 295 296
3 256 296 257
3 257 296 297
3 257 297 258
3 258 297 298
3 258 298 259
3 259 298 299
3 259 299 260
3 260 299 300
3 260 300 261
3 261 300 301
3 261 301 262
3 262 301 302
3 262 302 263
3 263 302 303
3 263 303 264
3 264 303 304
3 264 304 265
3 265 304 305
3 265 305 266
3 266 305 306
3 266 306 267
3 267 306 307
3 267 307 268
3 268 307 308
3 268 308 269
3 269 308 309
3 269 309 270
3 270 309 310
3 270 310 271
3 271 310 311
3 271 311 272
3 272 311 312
3 272 312 273
3 273 312 313
3 273 313 274
3 274 313 314
3 274 314 275
3 275 314 315
3 275 315 276
3 276 315 316
3 276 316 277
3 277 316 317
3 277 317 278
3 278 317 318
3 278 318 279
3 279 318 319
3 279 319 240
3 240 319 280
3 280 320 281
3 281 320 321
3 281 321 282
3 282 321 322
3 282 322 283
3 283 322 323
3 283 323 284
3 284 323 324
3 284 324 285
3 285 324 325
3 285 325 286
3 286 325 326
3 286 326 287
3 287 326 327
3 287 327 288
3 288 327 328
3 288 328 289
3 289 328 329
3 289 329 290
3 290 329 330
3 290 330 291
3 291 330 331
3 291 331 292
3 292 331 332
3 292 332 293
3 293 332 333
3 293 333 294
3 294 333 334
3 294 334 295
3 295 334 335
3 295 335 296
3 296 335 336
3 296 336 297
3 297 336 337
3 297 337 298
3 298 337 338
3 298 338 299
3 299 338 339
3 299 339 300
3 300 339 340
3 300 340 301
3 301 340 341
3 301 341 302
3 302 341 342
3 302 342 303
3 303 342 343
3 303 343 304
3 304 343 344
3 304 344 305
3 305 344 345
3 305 345 306
3 306 345 346
3 306 346 307
3 307 346 347
3 307 347 308
3 308 347 348
3 308 348 309
3 309 348 349
3 309 349 310
3 310 349 350
3 310 350 311
3 311 350 351
3 311 351 312
3 312 351 352
3 312 352 313
3 313 352 353
3 313 353 314
3 314 353 354
3 314 354 315
3 315 354 355
3 315 355 316
3 316 355 356
3 316 356 317
3 317 356 357
3 317 357 318
3 318 357 358
3 318 358 319
3 319 358 359
3 319 359 280
3 280 359 320
3 320 360 321
3 321 360 361
3 321 361 322
3 322 361 362
3 322 362 323
3 323 362 363
3 323 363 324
3 324 363 364
3 324 364 325
3 325 364 365
3 325 365 326
3 326 365 366
3 326 366 327
3 327 366 367
3 327 367 328
3 328 367 368
3 328 368 329
3 329 368 369
3 329 369 330
3 330 369 370
3 330 370 331
3 331 370 371
3 331 371 332
3 332 371 372
3 332 372 333
3 333 372 373
3 333 373 334
3 334 373 374
3 334 374 335
3 335 374 375
3 335 375 336
3 336 375 376
3 336 376 337
3 337 376 377
3 337 377 338
3 338 377 378
3 338 378 339
3 339 378 379
3 339 379 340
3 340 379 380
3 340 380 341
3 341 380 381
3 341 381 342
3 342 381 382
3 342 382 343
3 343 382 383
3 343 383 344
3 344 383 384
3 344 384 345
3 345 384 385
3 345 385 346
3 346 385 386
3 346 386 347
3 347 386 387
3 347 387 348
3 348 387 388
3 348 388 349
3 349 388 389
3 349 389 350
3 350 389 390
3 350 390 351
3 351 390 391
3 351 391 352
3 352 391 392
3 352 392 353
3 353 392 393
3 353 393 354
3 354 393 394
3 354 394 355
3 355 394 395
3 355 395 356
3 356 395 396
3 356 396 357
3 357 396 397
3 357 397 358
3 358 397 398
3 358 398 359
3 359 398 399
3 359 399 320
3 320 399 360
3 360 400 361
3 361 400 401
3 361 401 362
3 362 401 402
3 362 402 363
3 363 402 403
3 363 403 364
3 364 403 404
3 364 404 365
3 365 404 405
3 365 405 366
3 366 405 406
3 366 406 367
3 367 406 407
3 367 407 368
3 368 407 408
3 368 408 369
3 369 408 409
3 369 409 370
3 370 409 410
3 370 410 371
3 371 410 411
3 371 411 372
3 372 411 412
3 372 412 373
3 373 412 413
3 373 413 374
3 374 413 414
3 374 414 375
3 375 414 415
3 375 415 376
3 376 415 416
3 376 416 377
3 377 416 417
3 377 417 378
3 378 417 418
3 378 418 379
3 379 418 419
3 379 419 380
3 380 419 420
3 380 420 381
3 381 420 421
3 381 421 382
3 382 421 422
3 382 422 383
3 383 422 423
3 383 423 384
3 384 423 424
3 384 424 385
3 385 424 425
3 385 425 386
3 386 425 426
3 386 426 387
3 387 426 427
3 387 427 388
3 388 427 428
3 388 428 389
3 389 428 429
3 389 429 390
3 390 429 430
3 390 430 391
3 391 430 431
3 391 431 392
3 392 431 432
3 392 432 393
3 393 432 433
3 393 433 394
3 394 433 434
3 394 434 395
3 395 434 435
3 395 435 396
3 396 435 436
3 396 436 397
3 397 436 437
3 397 437 398
3 398 437 438
3 398 438 399
3 399 438 439
3 399 439 360
3 360 439 400
3 400 440 401
3 401 440 441
3 401 441 402
3 402 441 442
3 402 442 403
3 403 442 443
3 403 443 404
3 404 443 444
3 404 444 405
3 405 444 445
3 405 445 406
3 406 445 446
3 406 446 407
3 407 446 447
3 407 447 408
3 408 447 448
3 408 448 409
3 409 448 449
3 409 449 410
3 410 449 450
3 410 450 411
3 411 450 451
3 411 451 412
3 412 451 452
3 412 452 413
3 413 452 453
3 413 453 414
3 414 453 454
3 414 454 415
3 415 454 455
3 415 455 416
3 416 455 456
3 416 456 417
3 417 456 457
3 417 457 418
3 418 457 458
3 418 458 419
3 419 458 459
3 419 459 420
3 420 459 460
3 420 460 421
3 421 460 461
3 421 461 422
3 422 461 462
3 422 462 423
3 423 462 463
3 423 463 424
3 424 463 464
3 424 464 425
3 425 464 465
3 425 465 426
3 426 465 466
3 426 466 427
3 427 466 467
3 427 467 428
3 428 467 468
3 428 468 429
3 429 468 469
3 429 469 430
3 430 469 470
3 430 470 431
3 431 470 471
3 431 471 432
3 432 471 472
3 432 472 433
3 433 472 473
3 433 473 434
3 434 473 474
3 434 474 435
3 435 474 475
3 435 475 436
3 436 475 476
3 436 476 437
3 437 476 477
3 437 477 438
3 438 477 478
3 438 478 439
3 439 478 479
3 439 479 400
3 400 479 440
3 440 480 441
3 441 480 481
3 441 481 442
3 442 481 482
3 442 482 443
3 443 482 483
3 443 483 444
3 444 483 484
3 444 484 445
3 445 484 485
3 445 485 446
3 446 485 486
3 446 486 447
3 447 486 487
3 447 487 448
3 448 487 488
3 448 488 449
3 449 488 489
3 449 489 450
3 450 489 490
3 450 490 451
3 451 490 491
3 451 491 452
3 452 491 492
3 452 492 453
3 453 492 493
3 453 493 454
3 454 493 494
3 454 494 455
3 455 494 495
3 455 495 456
3 456 495 496
3 456 496 457
3 457 496 497
3 457 497 458
3 458 497 498
3 458 498 459
3 459 498 499
3 459 499 460
3 460 499 500
3 460 500 461
3 461 500 501
3 461 501 462
3 462 501 502
3 462 502 463
3 463 502 503
3 463 503 464
3 464 503 504
3 464 504 465
3 465 504 505
3 465 505 466
3 466 505 506
3 466 506 467
3 467 506 507
3 467 507 468
3 468 507 508
3 468 508 469
3 469 508 509
3 469 509 470
3 470 509 510
3 470 510 471
3 471 510 511
3 471 511 472
3 472 511 512
3 472 512 473
3 473 512 513
3 473 513 474
3 474 513 514
3 474 514 475
3 475 514 515
3 475 515 476
3 476 515 516
3 476 516 477
3 477 516 517
3 477 517 478
3 478 517 518
3 478 518 479
3 479 518 519
3 479 519 440
3 440 519 480
3 480 520 481
3 481 520 521
3 481 521 482
3 482 521 522
3 482 522 483
3 483 522 523
3 483 523 484
3 484 523 524
3 484 524 485
3 485 524 525
3 485 525 486
3 486 525 526
3 486 526 487
3 487 526 527
3 487 527 488
3 488 527 528
3 488 528 489
3 489 528 529
3 489 529 490
3 490 529 530
3 490 530 491
3 491 530 531
3 491 531 492
3 492 531 532
3 492 532 493
3 493 532 533
3 493 533 494
3 494 533 534
3 494 534 495
3 495 534 535
3 495 535 496
3 496 535 536
3 496 536 497
3 497 536 537
3 497 537 498
3 498 537 538
3 498 538 499
3 499 538 539
3 499 539 500
3 500 539 540
3 500 540 501
3 501 540 541
3 501 541 502
3 502 541 542
3 502 542 503
3 503 542 543
3 503 543 504
3 504 543 544
3 504 544 505
3 505 544 545
3 505 545 506
3 506 545 546
3 506 546 507
3 507 546 547
3 507 547 508
3 508 547 548
3 508 548 509
3 509 548 549
3 509 549 510
3 510 549 550
3 510 550 511
3 511 550 551
3 511 551 512
3 512 551 552
3 512 552 513
3 513 552 553
3 513 553 514
3 514 553 554
3 514 554 515
3 515 554 555
3 515 555 516
3 516 555 556
3 516 556 517
3 517 556 557
3 517 557 518
3 518 557 558
3 518 558 519
3 519 558 559
3 519 559 480
3 480 559 520
3 520 560 521
3 521 560 561
3 521 561 522
3 522 561 562
3 522 562 523
3 523 562 563
3 523 563 524
3 524 563 564
3 524 564 525
3 525 564 565
3 525 565 526
3 526 565 566
3 526 566 527
3 527 566 567
3 527 567 528
3 528 567 568
3 528 568 529
3 529 568 569
3 529 569 530
3 530 569 570
3 530 570 531
3 531 570 571
3 531 571 532
3 532 571 572
3 532 572 533
3 533 572 573
3 533 573 534
3 534 573 574
3 534 574 535
3 535 574 575
3 535 575 536
3 536 575 576
3 536 576 537
3 537 576 577
3 537 577 538
3 538 577 578
3 538 578 539
3 539 578 579
3 539 579 540
3 540 579 580
3 540 580 541
3 541 580 581
3 541 581 542
3 542 581 582
3 542 582 543
3 543 582 583
3 543 583 544
3 544 583 584
3 544 584 545
3 545 584 585
3 545 585 546
3 546 585 586
3 546 586 547
3 547 586 587
3 547 587 548
3 548 587 588
3 548 588 549
3 549 588 589
3 549 589 550
3 550 589 590
3 550 590 551
3 551 590 591
3 551 591 552
3 552 591 592
3 552 592 553
3 553 592 593
3 553 593 554
3 554 593 594
3 554 594 555
3 555 594 595
3 555 595 556
3 556 595 596
3 556 596 557
3 557 596 597
3 557 597 558
3 558 597 598
3 558 598 559
3 559 598 599
3 559 599 520
3 520 599 560
3 560 600 561
3 561 600 601
3 561 601 562
3 562 601 602
3 562 602 563
3 563 602 603
3 563 603 564
3 564 603 604
3 564 604 565
3 565 604 605
3 565 605 566
3 566 605 606
3 566 606 567
3 567 606 607
3 567 607 568
3 568 607 608
3 568 608 569
3 569 608 609
3 569 609 570
3 570 609 610
3 570 610 571
3 571 610 611
3 571 611 572
3 572 611 612
3 572 612 573
3 573 612 613
3 573 613 574
3 574 613 614
3 574 614 575
3 575 614 615
3 575 615 576
3 576 615 616
3 576 616 577
3 577 616 617
3 577 617 578
3 578 617 618
3 578 618 579
3 579 618 619
3 579 619 580
3 580 619 620
3 580 620 581
3 581 620 621
3 581 621 582
3 582 621 622
3 582 622 583
3 583 622 623
3 583 623 584
3 584 623 624
3 584 624 585
3 585 624 625
3 585 625 586
3 586 625 626
3 586 626 587
3 587 626 627
3 587 627 588
3 588 627 628
3 588 628 589
3 589 628 629
3 589 629 590
3 590 629 630
3 590 630 591
3 591 630 631
3 591 631 592
3 592 631 632
3 592 632 593
3 593 632 633
3 593 633 594
3 594 633 634
3 594 634 595
3 595 634 635
3 595 635 596
3 596 635 636
3 596 636 597
3 597 636 637
3 597 637 598
3 598 637 638
3 598 638 599
3 599 638 639
3 599 639 560
3 560 639 600
3 600 640 601
3 601 640 641
3 601 641 602
3 602 641 642
3 602 642 603
3 603 642 643
3 603 643 604
3 604 643 644
3 604 644 605
3 605 644 645
3 605 645 606
3 606 645 646
3 606 646 607
3 607 646 647
3 607 647 608
3 608 647 648
3 608 648 609
3 609 648 649
3 609 649 610
3 610 649 650
3 610 650 611
3 611 650 651
3 611 651 612
3 612 651 652
3 612 652 613
3 613 652 653
3 613 653 614
3 614 653 654
3 614 654 615
3 615 654 655
3 615 655 616
3 616 655 656
3 616 656 617
3 617 656 657
3 617 657 618
3 618 657 658
3 618 658 619
3 619 658 659
3 619 659 620
3 620 659 660
3 620 660 621
3 621 660 661
3 621 661 622
3 622 661 662
3 622 662 623
3 623 662 663
3 623 663 624
3 624 663 664
3 624 664 625
3 625 664 665
3 625 665 626
3 626 665 666
3 626 666 627
3 627 666 667
3 627 667 628
3 628 667 668
3 628 668 629
3 629 668 669
3 629 669 630
3 630 669 670
3 630 670 631
3 631 670 671
3 631 671 632
3 632 671 672
3 632 672 633
3 633 672 673
3 633 673 634
3 634 673 674
3 634 674 635
3 635 674 675
3 635 675 636
3 636 675 676
3 636 676 637
3 637 676 677
3 637 677 638
3 638 677 678
3 638 678 639
3 639 678 679
3 639 679 600
3 600 679 640
3 640 680 641
3 641 680 681
3 641 681 642
3 642 681 682
3 642 682 643
3 643 682 683
3 643 683 644
3 644 683 684
3 644 684 645
3 645 684 685
3 645 685 646
3 646 685 686
3 646 686 647
3 647 686 687
3 647 687 648
3 648 687 688
3 648 688 649
3 649 688 689
3 649 689 650
3 650 689 690
3 650 690 651
3 651 690 691
3 651 691 652
3 652 691 692
3 652 692 653
3 653 692 693
3 653 693 654
3 654 693 694
3 654 694 655
3 655 694 695
3 655 695 656
3 656 695 696
3 656 696 657
3 657 696 697
3 657 697 658
3 658 697 698
3 658 698 659
3 659 698 699
3 659 699 660
3 660 699 700
3 660 700 661
3 661 700 701
3 661 701 662
3 662 701 702
3 662 702 663
3 663 702 703
3 663 703 664
3 664 703 704
3 664 704 665
3 665 704 705
3 665 705 666
3 666 705 706
3 666 706 667
3 667 706 707
3 667 707 668
3 668 707 708
3 668 708 669
3 669 708 709
3 669 709 670
3 670 709 710
3 670 710 671
3 671 710 711
3 671 711 672
3 672 711 712
3 672 712 673
3 673 712 713
3 673 713 674
3 674 713 714
3 674 714 675
3 675 714 715
3 675 715 676
3 676 715 716
3 676 716 677
3 677 716 717
3 677 717 678
3 678 717 718
3 678 718 679
3 679 718 719
3 679 719 640
3 640 719 680
3 680 720 681
3 681 720 721
3 681 721 682
3 682 721 722
3 682 722 683
3 683 722 723
3 683 723 684
3 684 723 724
3 684 724 685
3 685 724 725
3 685 725 686
3 686 725 726
3 686 726 687
3 687 726 727
3 687 727 688
3 688 727 728
3 688 728 689
3 689 728 729
3 689 729 690
3 690 729 730
3 690 730 691
3 691 730 731
3 691 731 692
3 692 731 732
3 692 732 693
3 693 732 733
3 693 733 694
3 694 733 734
3 694 734 695
3 695 734 735
3 695 735 696
3 696 735 736
3 696 736 697
3 697 736 737
3 697 737 698
3 698 737 738
3 698 738 699
3 699 738 739
3 699 739 700
3 700 739 740
3 700 740 701
3 701 740 741
3 701 741 702
3 702 741 742
3 702 742 703
3 703 742 743
3 703 743 704
3 704 743 744
3 704 744 705
3 705 744 745
3 705 745 706
3 706 745 746
3 706 746 707
3 707 746 747
3 707 747 708
3 708 747 748
3 708 748 709
3 709 748 749
3 709 749 710
3 710 749 750
3 710 750 711
3 711 750 751
3 711 751 712
3 712 751 752
3 712 752 713
3 713 752 753
3 713 753 714
3 714 753 754
3 714 754 715
3 715 754 755
3 715 755 716
3 716 755 756
3 716 756 717
3 717 756 757
3 717 757 718
3 718 757 758
3 718 758 719
3 719 758 759
3 719 759 680
3 680 759 720
3 720 760 721
3 721 760 761
3 721 761 722
3 722 761 762
3 722 762 723
3 723 762 763
3 723 763 724
3 724 763 764
3 724 764 725
3 725 764 765
3 725 765 726
3 726 765 766
3 726 766 727
3 727 766 767
3 727 767 728
3 728 767 768
3 728 768 729
3 729 768 769
3 729 769 730
3 730 769 770
3 730 770 731
3 731 770 771
3 731 771 732
3 732 771 772
3 732 772 733
3 733 772 773
3 733 773 734
3 734 773 774
3 734 774 735
3 735 774 775
3 735 775 736
3 736 775 776
3 736 776 737
3 737 776 777
3 737 777 738
3 738 777 778
3 738 778 739
3 739 778 779
3 739 779 740
3 740 779 780
3 740 780 741
3 741 780 781
3 741 781 742
3 742 781 782
3 742 782 743
3 743 782 783
3 743 783 744
3 744 783 784
3 744 784 745
3 745 784 785
3 745 785 746
3 746 785 786
3 746 786 747
3 747 786 787
3 747 787 748
3 748 787 788
3 748 788 749
3 749 788 789
3 749 789 750
3 750 789 790
3 750 790 751
3 751 790 791
3 751 791 752
3 752 791 792
3 752 792 753
3 753 792 793
3 753 793 754
3 754 793 794
3 754 794 755
3 755 794 795
3 755 795 756
3 756 795 796
3 756 796 757
3 757 796 797
3 757 797 758
3 758 797 798
3 758 798 759
3 759 798 799
3 759 799 720
3 720 799 760
3 760 800 761
3 761 801 762
3 762 802 763
3 763 803 764
3 764 804 765
3 765 805 766
3 766 806 767
3 767 807 768
3 768 808 769
3 769 809 770
3 770 810 771
3 771 811 772
3 772 812 773
3 773 813 774
3 774 814 775
3 775 815 776
3 776 816 777
3 777 817 778
3 778 818 779
3 779 819 780
3 780 820 781
3 781 821 782
3 782 822 783
3 783 823 784
3 784 824 785
3 785 825 786
3 786 826 787
3 787 827 788
3 788 828 789
3 789 829 790
3 790 830 791
3 791 831 792
3 792 832 793
3 793 833 794
3 794 834 795
3 795 835 796
3 796 836 797
3 797 837 798
3 798 838 799
3 799 839 760
